<?xml version="1.0" encoding="utf-8" ?><svg xmlns="http://www.w3.org/2000/svg" xmlns:xlink="http://www.w3.org/1999/xlink" width="370" height="296" viewBox="0 0 555 444"><defs><linearGradient id="gradient_0" gradientUnits="userSpaceOnUse" x1="169.39201" y1="306.74295" x2="248.26906" y2="208.14246"><stop offset="0" stop-color="#10B981"/><stop offset="1" stop-color="#34D399"/></linearGradient></defs><path fill="url(#gradient_0)" d="M339.08 38.4076C340.057 35.9322 343.306 26.6075 344.634 25.3538C348.573 24.2571 369.117 25.1227 374.409 24.8813C375.803 24.8177 389.966 24.7051 391.827 24.7951C391.354 30.115 389.116 33.8701 387.223 38.8998L378.231 62.7824C376.678 66.8005 373.07 75.6377 372.055 79.6387C366.683 94.4612 361.195 109.241 355.589 123.977C353.536 129.268 351.315 134.388 349.265 139.764C343.402 155.617 337.456 171.439 331.426 187.229L315.557 227.944C313.162 234.054 310.362 240.341 308.118 246.465C303.929 256.84 300.342 267.394 296.287 277.748L278.117 324.535C276.153 329.642 273.905 334.84 272.022 339.944C269.935 344.377 268.917 343.742 264.365 343.777C262.927 343.789 261.413 343.763 259.975 343.759L246.644 343.794C234.267 343.835 220.331 344.159 208.073 343.809C206.437 341.133 204.946 337.36 203.163 334.364C197.927 325.566 192.915 316.561 187.724 307.744L167.109 272.86C164.117 267.751 160.286 261.566 157.598 256.434C152.918 248.954 126.904 205.053 125.979 200.267C126.552 197.325 142.509 185.884 145.577 183.684C160.34 173.094 174.421 162.372 187.969 150.234C187.434 152.929 177.523 159.323 175.38 161.964C174.748 162.743 172.938 163.533 171.973 164.88L172.116 165.045C173.854 164.093 174.235 163.382 175.746 162.299C179.974 159.27 184.474 156.066 188.163 152.387L188.507 152.445L188.632 152.641C187.228 154.347 183.902 157.082 182.085 158.647L182.621 159.855C182.813 160.293 182.91 160.614 182.873 161.121C182.783 162.35 184.657 164.267 185.503 164.959C187.083 166.252 187.754 167.185 189.817 167.021C196.557 171.218 200.379 172.797 204.546 179.633C205.872 181.809 209.926 184.127 210.93 186.877C211.553 187.152 211.391 187.188 211.995 187.17C212.833 186.723 212.89 186.605 213.539 185.879C214.357 185.75 214.328 185.778 215.066 186.048L215.479 186.7L211.178 190.139L211.698 190.314C212.652 189.775 213.088 189.485 213.959 188.819L214.462 188.992L214.615 189.44C213.82 190.283 212.82 190.754 212.482 191.529L212.721 191.763C205.951 198.172 192.097 203.968 183.491 207.367L183.991 208.674L185.846 212.004C188.971 216.88 192.234 223.512 195.373 228.792L224.932 278.428L233.349 292.526C234.818 294.998 236.985 298.93 238.695 301.076C239.622 299.244 240.974 295.603 241.786 293.587C244.091 287.915 246.289 282.201 248.381 276.446C253.362 263.428 258.219 250.362 262.951 237.251C265.921 229.117 269.276 221.029 272.438 212.96L289.476 168.769C289.692 167.781 292.236 161.429 292.776 160.025C295.139 153.984 297.419 147.911 299.616 141.808C300.045 140.519 300.537 139.27 301.07 138.021C304.242 130.576 307.037 123.016 309.878 115.44C313.872 104.689 317.923 93.9598 322.03 83.2521C324.205 77.4836 326.136 71.7419 328.475 66.0179C328.732 64.7266 330.588 60.2112 331.149 58.806C332.7 54.9726 334.194 51.1166 335.631 47.2391L339.08 38.4076Z"/><defs><linearGradient id="gradient_1" gradientUnits="userSpaceOnUse" x1="382.87775" y1="23.804701" x2="274.121" y2="238.8438"><stop offset="0" stop-color="#6EE7B7"/><stop offset="1" stop-color="#10B981"/></linearGradient></defs><path fill="url(#gradient_1)" d="M339.08 38.4076C340.057 35.9322 343.306 26.6075 344.634 25.3538C348.573 24.2571 369.117 25.1227 374.409 24.8813C375.803 24.8177 389.966 24.7051 391.827 24.7951C391.354 30.115 389.116 33.8701 387.223 38.8998L378.231 62.7824C376.678 66.8005 373.07 75.6377 372.055 79.6387C366.683 94.4612 361.195 109.241 355.589 123.977C353.536 129.268 351.315 134.388 349.265 139.764C343.402 155.617 337.456 171.439 331.426 187.229L315.557 227.944C313.162 234.054 310.362 240.341 308.118 246.465C307.689 246.083 307.763 246.137 307.422 245.666C307.645 244.854 307.68 244.534 307.654 243.692C306.771 245.662 305.643 249.171 304.917 250.639L304.318 250.648C303.494 251.721 303.116 252.183 303.124 253.571C302.19 252.802 302.756 251.602 301.678 250.888C300.586 250.152 299.226 249.953 298.002 249.458C292.357 247.177 288.32 242.405 283.249 239.234C280.327 237.408 276.722 236.258 273.739 234.526C273.452 234.359 271.94 232.561 271.634 232.205C267.994 231.514 271.27 230.416 268.079 229.08C275.26 210.308 282.448 190.182 289.957 171.675C293.904 162.457 298.824 149.131 302.254 139.515C303.238 137.597 305.219 132.125 306.028 129.946L312.319 112.893L328.929 69.1909C329.245 67.4667 329.338 67.2727 328.475 66.0179C328.732 64.7266 330.588 60.2112 331.149 58.806C332.7 54.9726 334.194 51.1166 335.631 47.2391L339.08 38.4076Z"/><path fill="#022C22" d="M370.081 80.7147C371.385 80.1153 370.335 79.8561 371.355 79.1969L372.055 79.6387C366.683 94.4612 361.195 109.241 355.589 123.977C353.536 129.268 351.315 134.388 349.265 139.764C343.402 155.617 337.456 171.439 331.426 187.229L315.557 227.944C313.162 234.054 310.362 240.341 308.118 246.465C307.689 246.083 307.763 246.137 307.422 245.666C307.645 244.854 307.68 244.534 307.654 243.692C307.916 241.527 312.604 230.472 313.61 227.827L336.815 167.801L360.797 104.904C362.832 99.6303 364.84 94.3458 366.821 89.0514C367.614 86.9407 369.111 82.5912 370.081 80.7147Z"/><path fill="#022C22" d="M339.08 38.4076C340.057 35.9322 343.306 26.6075 344.634 25.3538C348.573 24.2571 369.117 25.1227 374.409 24.8813C375.803 24.8177 389.966 24.7051 391.827 24.7951C391.354 30.115 389.116 33.8701 387.223 38.8998L378.231 62.7824C376.678 66.8005 373.07 75.6377 372.055 79.6387L371.355 79.1969C370.335 79.8561 371.385 80.1153 370.081 80.7147C370.407 79.4768 371.019 77.9618 371.475 76.7498C376.949 62.2026 382.893 47.7549 388.016 33.0825C387.485 31.675 388.414 30.0062 388.966 28.3971C387.738 28.0557 387.971 27.717 387.853 26.5964C386.829 26.2682 383.388 26.3764 382.054 26.3173C373.073 25.9059 364.053 26.3481 355.073 26.0156C352.688 25.9272 347.881 26.4129 346.004 25.5079C345.645 25.5061 345.04 25.413 344.962 25.6491C343.735 29.4039 342.524 34.389 341.14 37.9894C340.48 38.0558 339.599 38.0631 339.08 38.4076Z"/><path fill="#6EE7B7" d="M346.004 25.5079C350.938 25.1741 357.918 25.4259 362.992 25.4308C372.342 25.4373 381.692 25.3767 391.041 25.2491L388.016 33.0825C387.485 31.675 388.414 30.0062 388.966 28.3971C387.738 28.0557 387.971 27.717 387.853 26.5964C386.829 26.2682 383.388 26.3764 382.054 26.3173C373.073 25.9059 364.053 26.3481 355.073 26.0156C352.688 25.9272 347.881 26.4129 346.004 25.5079Z"/><path fill="#022C22" d="M335.631 47.2391C335.622 48.7074 335.569 50.4016 335.694 51.8433C333.635 56.9838 331.061 64.4653 328.929 69.1909C329.245 67.4667 329.338 67.2727 328.475 66.0179C328.732 64.7266 330.588 60.2112 331.149 58.806C332.7 54.9726 334.194 51.1166 335.631 47.2391Z"/><path fill="#064E3B" d="M339.08 38.4076C339.599 38.0631 340.48 38.0558 341.14 37.9894C339.863 41.6524 337.317 48.3615 335.694 51.8433C335.569 50.4016 335.622 48.7074 335.631 47.2391L339.08 38.4076Z"/><path fill="#022C22" d="M125.953 199.959C126.62 200.661 127.432 201.554 127.924 202.388C132.265 209.753 136.654 217.118 140.784 224.606C141.969 226.755 142.798 228.336 144.414 230.207L144.881 230.07C145.967 231.387 149.568 237.973 150.602 239.772L161.397 258.155L210.663 340.707C223.045 340.595 235.428 340.551 247.811 340.576C254.5 340.562 264.505 340.141 270.755 340.97C271.119 339.983 271.596 338.792 271.901 337.807L272.022 339.944C269.935 344.377 268.917 343.742 264.365 343.777C262.927 343.789 261.413 343.763 259.975 343.759L246.644 343.794C234.267 343.835 220.331 344.159 208.073 343.809C206.437 341.133 204.946 337.36 203.163 334.364C197.927 325.566 192.915 316.561 187.724 307.744L167.109 272.86C164.117 267.751 160.286 261.566 157.598 256.434C157.632 255.944 157.623 255.323 157.383 254.89C147.17 236.505 135.441 218.729 125.953 199.959Z"/><path fill="#022C22" d="M299.616 141.808C300.045 140.519 300.537 139.27 301.07 138.021C304.242 130.576 307.037 123.016 309.878 115.44C313.872 104.689 317.923 93.9598 322.03 83.2521C324.205 77.4836 326.136 71.7419 328.475 66.0179C329.338 67.2727 329.245 67.4667 328.929 69.1909L312.319 112.893L306.028 129.946C305.219 132.125 303.238 137.597 302.254 139.515C298.824 149.131 293.904 162.457 289.957 171.675C282.448 190.182 275.26 210.308 268.079 229.08C260.984 248.116 253.7 267.081 246.228 285.972C244.207 291.174 241.322 298.413 239.061 303.749C238.893 303.866 238.724 303.983 238.556 304.1C237.738 302.083 234.752 297.391 233.549 295.426C230.563 290.583 227.623 285.712 224.729 280.813C211.564 258.472 197.869 236.048 184.903 213.681C185.152 212.785 185.641 213.1 185.846 212.004C188.971 216.88 192.234 223.512 195.373 228.792L224.932 278.428L233.349 292.526C234.818 294.998 236.985 298.93 238.695 301.076C239.622 299.244 240.974 295.603 241.786 293.587C244.091 287.915 246.289 282.201 248.381 276.446C253.362 263.428 258.219 250.362 262.951 237.251C265.921 229.117 269.276 221.029 272.438 212.96L289.476 168.769C289.692 167.781 292.236 161.429 292.776 160.025C295.139 153.984 297.419 147.911 299.616 141.808Z"/><path fill="#10B981" d="M179.482 206.056C180.646 206.921 181.107 207.659 181.968 208.82L183.491 207.367L183.991 208.674L185.846 212.004C185.641 213.1 185.152 212.785 184.903 213.681C197.869 236.048 211.564 258.472 224.729 280.813C227.623 285.712 230.563 290.583 233.549 295.426C234.752 297.391 237.738 302.083 238.556 304.1C238.523 304.335 238.38 304.796 238.312 305.042L237.851 305.161C234.659 302.725 211.853 262.987 208.826 257.823L193.386 232.066C189.806 226.129 186.266 220.168 182.766 214.183C181.648 212.27 180.178 209.903 179.23 207.877C178.872 207.113 179.183 206.636 179.482 206.056Z"/><path fill="#022C22" d="M183.991 208.674L185.846 212.004C185.641 213.1 185.152 212.785 184.903 213.681L183.794 211.706L183.991 208.674Z"/><path fill="#022C22" d="M181.968 208.82L183.491 207.367L183.991 208.674L183.794 211.706C183.209 210.749 182.57 209.771 181.968 208.82Z"/><path fill="#022C22" d="M157.598 256.434C152.918 248.954 126.904 205.053 125.979 200.267C126.552 197.325 142.509 185.884 145.577 183.684C160.34 173.094 174.421 162.372 187.969 150.234C187.434 152.929 177.523 159.323 175.38 161.964C174.748 162.743 172.938 163.533 171.973 164.88L172.116 165.045C173.854 164.093 174.235 163.382 175.746 162.299C179.974 159.27 184.474 156.066 188.163 152.387L188.507 152.445L188.632 152.641C187.228 154.347 183.902 157.082 182.085 158.647C170.395 167.571 157.874 176.098 146.141 185.055C140.307 189.507 132.097 195.012 126.759 199.772C128.986 202.636 133.544 210.669 135.604 214.311C138.202 218.903 142.618 225.6 144.881 230.07L144.414 230.207C142.798 228.336 141.969 226.755 140.784 224.606C136.654 217.118 132.265 209.753 127.924 202.388C127.432 201.554 126.62 200.661 125.953 199.959C135.441 218.729 147.17 236.505 157.383 254.89C157.623 255.323 157.632 255.944 157.598 256.434Z"/><path fill="#022C22" d="M307.654 243.692C307.68 244.534 307.645 244.854 307.422 245.666C307.763 246.137 307.689 246.083 308.118 246.465C303.929 256.84 300.342 267.394 296.287 277.748L278.117 324.535C276.153 329.642 273.905 334.84 272.022 339.944L271.901 337.807C275.04 328.637 278.506 320.086 281.882 311.04C289.403 290.888 297.49 270.808 304.917 250.639C305.643 249.171 306.771 245.662 307.654 243.692Z"/><path fill="#064E3B" d="M211.178 190.139L211.698 190.314C212.652 189.775 213.088 189.485 213.959 188.819L214.462 188.992L214.615 189.44C213.82 190.283 212.82 190.754 212.482 191.529L212.721 191.763C205.951 198.172 192.097 203.968 183.491 207.367L181.968 208.82C181.107 207.659 180.646 206.921 179.482 206.056C179.768 205.188 184.113 203.852 185.201 203.528C195.328 200.508 202.404 195.308 211.178 190.139Z"/><defs><linearGradient id="gradient_2" gradientUnits="userSpaceOnUse" x1="493.92294" y1="25.598612" x2="419.56088" y2="324.26953"><stop offset="0" stop-color="#6EE7B7"/><stop offset="1" stop-color="#10B981"/></linearGradient></defs><path fill="url(#gradient_2)" d="M506.436 25.4879C507.103 26.1667 507.375 26.5599 507.465 27.5327C507.875 32.0009 508.207 36.4786 508.52 40.9546C508.727 43.9133 508.741 46.9221 508.976 49.8741C509.478 56.1552 509.949 62.4428 510.581 68.7118C511.033 74.6646 511.31 80.6253 511.802 86.5955C512.961 99.2531 513.961 111.925 514.801 124.607C514.996 127.599 516.491 136.235 514.896 138.171C510.548 140.814 488.798 126.475 484.307 123.51C482.011 128.673 479.664 133.919 477.236 139.015C474.466 144.829 471.282 150.778 468.739 156.679C473.336 160.81 480.959 165.689 486.114 169.414L513.545 189.559C515.335 190.856 525.833 198.48 526.8 199.717C527.53 200.252 529.208 201.536 529.934 201.931C530.826 203.093 530.544 219.732 530.507 222.16C530.41 228.571 530.993 235.943 530.541 242.243C528.642 244.295 524.341 247.28 521.91 249.093C516.373 253.228 510.811 257.33 505.225 261.398L426.018 319.104C423.57 320.95 421.192 322.565 418.651 324.284C417.391 325.143 414.936 327.102 413.443 326.657C412.71 324.532 413.048 310.953 413.069 307.788C412.938 297.679 415.323 297.406 420.011 288.448C423.039 282.662 426.074 276.566 429.093 270.742C429.404 269.342 432.44 263.708 433.236 261.95C434.078 260.251 435.859 256.43 437.124 255.24C441.538 251.091 447.617 247.221 452.583 243.684C462.391 236.699 471.999 229.875 482.151 223.426C479.384 221.048 474.922 218.03 471.87 215.843C464.777 210.758 457.64 205.735 450.461 200.773C439.977 193.406 429.336 185.746 418.73 178.314C416.093 176.466 383.27 152.73 383.25 152.198C383.015 145.966 382.261 98.3448 385.047 97.1336L385.623 97.5873C388.679 98.7477 393.116 102.331 395.922 104.208C407.562 111.997 418.735 121.869 430.603 129.218C433.465 123.224 436.269 117.181 438.957 111.107C439.557 109.752 442.398 104.075 442.619 103C442.179 102.451 442.203 102.448 441.622 102.064C440.375 101.728 435.786 99.5354 434.469 98.8254C428.375 95.539 417.794 91.9795 413.135 87.0802C417.803 82.3783 429.554 75.837 435.518 71.6884C437.382 70.3914 443.985 66.0522 445.848 65.1258L480.25 42.406C484.638 39.5021 492.049 34.237 496.365 31.8649C498.362 30.3064 504.102 26.2175 506.436 25.4879Z"/><path fill="#064E3B" d="M482.151 223.426C479.384 221.048 474.922 218.03 471.87 215.843C464.777 210.758 457.64 205.735 450.461 200.773C439.977 193.406 429.336 185.746 418.73 178.314C416.093 176.466 383.27 152.73 383.25 152.198C383.015 145.966 382.261 98.3448 385.047 97.1336L385.623 97.5873L385.534 97.9407C385.238 99.4065 385.565 102.67 385.668 104.307L385.555 149.819C397.712 158.247 409.766 166.821 421.717 175.539L486.129 221.932C484.887 222.911 483.592 224.001 482.222 224.766L482.151 223.426Z"/><path fill="#064E3B" d="M506.436 25.4879C507.103 26.1667 507.375 26.5599 507.465 27.5327C507.875 32.0009 508.207 36.4786 508.52 40.9546C508.727 43.9133 508.741 46.9221 508.976 49.8741C509.478 56.1552 509.949 62.4428 510.581 68.7118C511.033 74.6646 511.31 80.6253 511.802 86.5955C512.961 99.2531 513.961 111.925 514.801 124.607C514.996 127.599 516.491 136.235 514.896 138.171C510.548 140.814 488.798 126.475 484.307 123.51C482.011 128.673 479.664 133.919 477.236 139.015C474.466 144.829 471.282 150.778 468.739 156.679C473.336 160.81 480.959 165.689 486.114 169.414L513.545 189.559C515.335 190.856 525.833 198.48 526.8 199.717C524.397 198.694 514.095 190.613 511.139 188.478L485.273 169.715C479.27 165.395 473.6 161.567 467.737 156.994C473.205 144.86 479.187 132.694 484.216 120.434C486.347 121.783 489.348 123.119 491.645 124.399C499.15 128.581 508.254 132.74 515.173 137.641C515.04 131.516 514.322 125.297 513.826 119.181L511.669 92.0298C510.304 76.1317 509.378 60.1322 507.776 44.2578C507.523 38.7665 506.925 30.9302 506.436 25.4879Z"/><path fill="#022C22" d="M529.934 201.931C530.826 203.093 530.544 219.732 530.507 222.16C530.41 228.571 530.993 235.943 530.541 242.243C528.642 244.295 524.341 247.28 521.91 249.093C516.373 253.228 510.811 257.33 505.225 261.398L426.018 319.104C423.57 320.95 421.192 322.565 418.651 324.284L418.173 324.023C418.011 323.712 417.831 323.431 417.62 323.151L424.895 317.758C425.983 316.721 433.347 311.803 434.977 310.644L456.694 294.895C472.356 283.358 488.087 271.914 503.885 260.565C511.63 254.944 521.325 247.295 529.422 242.501C530.422 229.298 529.468 215.106 529.934 201.931Z"/><path fill="#064E3B" d="M429.093 270.742C429.085 271.845 428.849 274.058 428.9 274.851C426.79 280.871 422.384 287.623 419.846 293.643C418.752 296.24 417.008 298.826 416.441 301.691C415.25 308.273 416.276 318.54 414.908 324.904L417.62 323.151C417.831 323.431 418.011 323.712 418.173 324.023L418.651 324.284C417.391 325.143 414.936 327.102 413.443 326.657C412.71 324.532 413.048 310.953 413.069 307.788C412.938 297.679 415.323 297.406 420.011 288.448C423.039 282.662 426.074 276.566 429.093 270.742Z"/><path fill="#022C22" d="M413.069 307.788C413.366 311.147 412.73 321.421 413.745 322.981L414.232 323.226L414.691 322.976C414.632 323.584 414.814 324.295 414.908 324.904L417.62 323.151C417.831 323.431 418.011 323.712 418.173 324.023L418.651 324.284C417.391 325.143 414.936 327.102 413.443 326.657C412.71 324.532 413.048 310.953 413.069 307.788Z"/><path fill="#064E3B" d="M413.135 87.0802C417.803 82.3783 429.554 75.837 435.518 71.6884C437.382 70.3914 443.985 66.0522 445.848 65.1258C443.954 66.9246 437.093 71.1693 434.628 72.809C427.849 77.3177 421.064 81.6304 414.503 86.5014C420.107 88.1311 427.354 91.8184 432.842 94.2702C436.588 95.9439 443.092 98.7541 446.36 100.715L444.13 104.697C444.296 103.757 444.417 103.52 444.118 102.657C443.457 102.094 442.525 102.144 441.622 102.064C440.375 101.728 435.786 99.5354 434.469 98.8254C428.375 95.539 417.794 91.9795 413.135 87.0802Z"/><path fill="#064E3B" d="M385.623 97.5873C388.679 98.7477 393.116 102.331 395.922 104.208C407.562 111.997 418.735 121.869 430.603 129.218C433.465 123.224 436.269 117.181 438.957 111.107C439.557 109.752 442.398 104.075 442.619 103C442.179 102.451 442.203 102.448 441.622 102.064C442.525 102.144 443.457 102.094 444.118 102.657C444.417 103.52 444.296 103.757 444.13 104.697C440.989 111.78 435.511 124.972 431.767 131.3C428.082 128.982 424.439 125.78 420.877 123.238C415.756 119.581 410.588 116.01 405.524 112.28C404.326 111.397 397.785 106.538 396.779 106.13C394.509 104.004 388.194 99.5862 385.534 97.9407L385.623 97.5873Z"/><path fill="#022C22" d="M482.151 223.426L482.222 224.766C478.788 226.914 475.423 229.443 472.068 231.744L452.222 245.52C448.157 248.393 443.8 251.039 439.996 254.273C437.583 256.324 436.393 259.23 435.083 262.051C434.527 261.705 433.929 261.878 433.236 261.95C434.078 260.251 435.859 256.43 437.124 255.24C441.538 251.091 447.617 247.221 452.583 243.684C462.391 236.699 471.999 229.875 482.151 223.426Z"/><defs><linearGradient id="gradient_3" gradientUnits="userSpaceOnUse" x1="503.73926" y1="31.595636" x2="507.07211" y2="28.646257"><stop offset="0" stop-color="#6EE7B7"/><stop offset="1" stop-color="#34D399"/></linearGradient></defs><path fill="url(#gradient_3)" d="M496.365 31.8649C498.362 30.3064 504.102 26.2175 506.436 25.4879C506.925 30.9302 507.523 38.7665 507.776 44.2578C505.7 42.6019 507.723 34.8454 504.977 32.4765L504.526 32.5809C503.923 34.9763 504.77 38.4352 504.075 40.777C502.961 39.2592 504.254 30.7244 503.411 28.2737C501.946 28.2529 498.358 32.5406 496.365 31.8649Z"/><path fill="#064E3B" d="M433.236 261.95C433.929 261.878 434.527 261.705 435.083 262.051C434.108 264.176 430.068 273.067 428.9 274.851C428.849 274.058 429.085 271.845 429.093 270.742C429.404 269.342 432.44 263.708 433.236 261.95Z"/><path fill="#6EE7B7" d="M385.534 97.9407C388.194 99.5862 394.509 104.004 396.779 106.13C393.985 105.628 391.027 101.989 389.049 101.201L387.777 101.903L387.115 101.259L386.78 101.359C386.12 102.732 386.388 103.669 386.09 105.171L385.668 104.307C385.565 102.67 385.238 99.4065 385.534 97.9407Z"/><defs><linearGradient id="gradient_4" gradientUnits="userSpaceOnUse" x1="-0.59847873" y1="116.00636" x2="139.48332" y2="47.078423"><stop offset="0" stop-color="#059669"/><stop offset="1" stop-color="#10B981"/></linearGradient></defs><path fill="url(#gradient_4)" d="M26.5353 24.779C32.56 24.4089 41.139 24.6815 47.3076 24.6917L86.0587 24.7804L127.44 24.9908C134.159 25.0172 143.253 24.7744 149.792 25.1305C164.055 25.4179 173.322 25.875 187.179 30.7721C189.255 31.1429 193.053 32.7962 195.063 33.6907C209.18 40.0698 221.342 50.0972 230.296 62.7405C242.016 79.5272 248.055 98.1834 247.88 118.607C247.839 123.406 248.023 129.33 247.038 134.067C246.535 136.487 244.791 144.348 243.833 146.322C242.073 152.109 240.615 156.446 237.454 161.69C232.156 171.639 225.211 180.618 216.912 188.244C216.168 188.937 213.515 191.432 212.721 191.763L212.482 191.529C212.82 190.754 213.82 190.283 214.615 189.44L214.462 188.992L213.959 188.819C213.088 189.485 212.652 189.775 211.698 190.314L211.178 190.139L215.479 186.7L215.066 186.048C214.328 185.778 214.357 185.75 213.539 185.879C212.89 186.605 212.833 186.723 211.995 187.17C211.391 187.188 211.553 187.152 210.93 186.877C209.926 184.127 205.872 181.809 204.546 179.633C200.379 172.797 196.557 171.218 189.817 167.021C187.754 167.185 187.083 166.252 185.503 164.959C184.657 164.267 182.783 162.35 182.873 161.121C182.91 160.614 182.813 160.293 182.621 159.855L182.085 158.647C183.902 157.082 187.228 154.347 188.632 152.641L188.507 152.445L188.163 152.387C184.474 156.066 179.974 159.27 175.746 162.299C174.235 163.382 173.854 164.093 172.116 165.045L171.973 164.88C172.938 163.533 174.748 162.743 175.38 161.964C177.523 159.323 187.434 152.929 187.969 150.234C196.672 139.159 201.27 125.928 199.467 111.833C198.118 101.288 192.303 88.9386 183.693 82.4987C177.939 78.1944 168.72 74.2689 161.636 72.9278C158.991 72.4271 151.972 72.5686 149.097 72.5658L127.259 72.5419C114.991 72.3938 102.722 72.3267 90.4532 72.3406C86.3361 72.3329 76.5744 72.0644 73.0514 72.5362C72.5173 73.3248 72.6914 73.9159 72.664 75.0058C72.9351 76.9851 72.8084 83.1275 72.8089 85.3773L72.8093 106.719L72.8512 133.764C72.8593 137.71 73.1021 144.755 72.7001 148.424C70.958 150.501 58.1878 159.534 55.1372 161.963C49.4213 166.289 43.8791 170.891 38.1391 175.182C36.348 176.521 28.3625 182.78 26.7531 182.386C26.0051 181.101 26.4699 139.364 26.4966 134.176L26.6476 62.7876C26.6658 50.3552 26.9205 37.1327 26.5353 24.779Z"/><defs><linearGradient id="gradient_5" gradientUnits="userSpaceOnUse" x1="223.63409" y1="56.380383" x2="148.17404" y2="123.11104"><stop offset="0" stop-color="#34D399"/><stop offset="1" stop-color="#10B981"/></linearGradient></defs><path fill="url(#gradient_5)" d="M149.792 25.1305C164.055 25.4179 173.322 25.875 187.179 30.7721C189.255 31.1429 193.053 32.7962 195.063 33.6907C209.18 40.0698 221.342 50.0972 230.296 62.7405C242.016 79.5272 248.055 98.1834 247.88 118.607C247.839 123.406 248.023 129.33 247.038 134.067C246.535 136.487 244.791 144.348 243.833 146.322C242.073 152.109 240.615 156.446 237.454 161.69C232.156 171.639 225.211 180.618 216.912 188.244C216.168 188.937 213.515 191.432 212.721 191.763L212.482 191.529C212.82 190.754 213.82 190.283 214.615 189.44L214.462 188.992L213.959 188.819C213.088 189.485 212.652 189.775 211.698 190.314L211.178 190.139L215.479 186.7L215.066 186.048C214.328 185.778 214.357 185.75 213.539 185.879C212.89 186.605 212.833 186.723 211.995 187.17C211.391 187.188 211.553 187.152 210.93 186.877C209.926 184.127 205.872 181.809 204.546 179.633C200.379 172.797 196.557 171.218 189.817 167.021C187.754 167.185 187.083 166.252 185.503 164.959C184.657 164.267 182.783 162.35 182.873 161.121C182.91 160.614 182.813 160.293 182.621 159.855L182.085 158.647C183.902 157.082 187.228 154.347 188.632 152.641C188.863 152.468 189.087 152.287 189.304 152.096C197.967 144.562 202.184 130.243 202.909 119.072C204.572 93.4517 185.76 70.4949 159.859 68.6685C154.694 68.3043 149.556 68.5362 144.398 68.3194L144.232 67.8527C141.252 67.4035 132.867 68.0998 131.079 67.5541C131.081 67.1007 131.086 67.1232 130.877 66.7579L131.216 66.1294C128.155 62.0707 130.054 62.9655 130.662 59.4223C131.049 57.1631 127.898 50.5668 126.847 48.3125C126.394 47.3387 125.015 45.9917 124.721 44.7381C124.353 44.0407 122.597 37.9483 122.335 37.8877C118.543 37.0114 120.379 33.8856 119.366 30.7707C119.177 30.1876 118.063 28.8321 117.542 28.189C118.771 25.9797 126.619 26.1646 128.872 25.9914C127.234 25.0933 109.65 26.0477 105.876 25.2593L149.792 25.1305Z"/><path fill="#022C22" d="M187.179 30.7721C189.255 31.1429 193.053 32.7962 195.063 33.6907C209.18 40.0698 221.342 50.0972 230.296 62.7405C242.016 79.5272 248.055 98.1834 247.88 118.607C247.839 123.406 248.023 129.33 247.038 134.067C246.535 136.487 244.791 144.348 243.833 146.322C242.073 152.109 240.615 156.446 237.454 161.69C236.991 161.196 236.757 160.808 236.389 160.252C238.535 155.722 240.052 152.011 241.902 147.414C246.095 131.007 248.171 121.899 245.724 104.798C244.894 98.7861 243.533 92.8592 241.656 87.0872C234.907 66.1017 220.524 48.4171 201.357 37.5365C196.231 34.5907 192.225 33.3324 187.407 30.8893L187.179 30.7721Z"/><path fill="#022C22" d="M236.389 160.252C236.757 160.808 236.991 161.196 237.454 161.69C232.156 171.639 225.211 180.618 216.912 188.244C216.168 188.937 213.515 191.432 212.721 191.763L212.482 191.529C212.82 190.754 213.82 190.283 214.615 189.44L214.462 188.992L213.959 188.819C213.088 189.485 212.652 189.775 211.698 190.314L211.178 190.139L215.479 186.7C224.993 179.057 230.626 170.89 236.389 160.252Z"/><defs><linearGradient id="gradient_6" gradientUnits="userSpaceOnUse" x1="118.80371" y1="143.29399" x2="151.24481" y2="63.316181"><stop offset="0" stop-color="#022C22"/><stop offset="1" stop-color="#064E3B"/></linearGradient></defs><path fill="url(#gradient_6)" d="M71.4623 68.3747C88.9661 68.7284 106.765 68.057 124.305 68.3207C130.77 68.4179 137.979 68.5967 144.398 68.3194C149.556 68.5362 154.694 68.3043 159.859 68.6685C185.76 70.4949 204.572 93.4517 202.909 119.072C202.184 130.243 197.967 144.562 189.304 152.096C189.087 152.287 188.863 152.468 188.632 152.641L188.507 152.445L188.163 152.387C184.474 156.066 179.974 159.27 175.746 162.299C174.235 163.382 173.854 164.093 172.116 165.045L171.973 164.88C172.938 163.533 174.748 162.743 175.38 161.964C177.523 159.323 187.434 152.929 187.969 150.234C196.672 139.159 201.27 125.928 199.467 111.833C198.118 101.288 192.303 88.9386 183.693 82.4987C177.939 78.1944 168.72 74.2689 161.636 72.9278C158.991 72.4271 151.972 72.5686 149.097 72.5658L127.259 72.5419C114.991 72.3938 102.722 72.3267 90.4532 72.3406C86.3361 72.3329 76.5744 72.0644 73.0514 72.5362C72.5173 73.3248 72.6914 73.9159 72.664 75.0058C71.7117 82.8937 73.6194 142.306 72.1677 143.85C72.2474 126.999 72.1677 110.147 71.9286 93.2979C71.8698 86.7261 72.1316 74.446 71.4623 68.3747Z"/><defs><linearGradient id="gradient_7" gradientUnits="userSpaceOnUse" x1="62.819828" y1="97.83252" x2="14.668228" y2="105.56345"><stop offset="0" stop-color="black"/><stop offset="1" stop-color="#022C22"/></linearGradient></defs><path fill="url(#gradient_7)" d="M26.5353 24.779C32.56 24.4089 41.139 24.6815 47.3076 24.6917L86.0587 24.7804L127.44 24.9908C134.159 25.0172 143.253 24.7744 149.792 25.1305L105.876 25.2593C85.239 24.972 64.5067 25.408 43.8605 25.1517C38.8622 25.0897 33.081 24.9214 28.1464 25.213C28.8452 34.4952 28.5099 47.0568 28.5328 56.5282C28.7174 73.9985 28.7416 91.4701 28.6053 108.941L28.6717 157.856C28.6723 164.239 28.9712 172.149 28.6922 178.397C30.1123 177.514 31.5299 176.609 32.9099 175.664C46.0161 166.693 58.5283 156.438 71.7948 147.752C71.9261 146.492 72.1012 145.101 72.1677 143.85C73.6194 142.306 71.7117 82.8937 72.664 75.0058C72.9351 76.9851 72.8084 83.1275 72.8089 85.3773L72.8093 106.719L72.8512 133.764C72.8593 137.71 73.1021 144.755 72.7001 148.424C70.958 150.501 58.1878 159.534 55.1372 161.963C49.4213 166.289 43.8791 170.891 38.1391 175.182C36.348 176.521 28.3625 182.78 26.7531 182.386C26.0051 181.101 26.4699 139.364 26.4966 134.176L26.6476 62.7876C26.6658 50.3552 26.9205 37.1327 26.5353 24.779Z"/><defs><linearGradient id="gradient_8" gradientUnits="userSpaceOnUse" x1="22.788115" y1="316.12857" x2="163.00854" y2="185.85631"><stop offset="0" stop-color="#064E3B"/><stop offset="1" stop-color="#10B981"/></linearGradient></defs><path fill="url(#gradient_8)" d="M46.0282 185.633C46.6985 184.92 47.5934 184.308 48.3685 183.702C56.6613 177.227 65.7171 171.537 74.1169 165.258L132.6 122.164C141.797 115.37 150.664 108.222 160.001 101.567C169.641 94.6955 170.003 95.3438 169.479 107.255C169.348 116.513 169.282 125.771 169.282 135.029C169.285 139.037 169.553 146.42 169.173 150.018C169.067 151.211 168.96 151.787 167.963 152.553C154.707 162.742 140.667 171.909 127.142 181.698C108.273 195.353 90.06 209.858 70.551 222.653C77.2299 227.994 85.6701 233.574 92.7688 238.699L130.078 266.124C133.39 268.496 137.924 271.591 140.866 274.345C141.256 289.522 140.906 304.811 141.072 320.001C141.101 322.626 141.077 325.274 141.029 327.899C133.642 325.231 126.126 317.393 119.366 313.163C118.674 312.73 114.721 309.758 114.302 309.231C113.331 308.622 112.379 307.835 111.446 307.158C100.805 299.443 90.5562 291.283 80.4308 282.911C78.4078 281.238 75.6604 279.23 73.9525 277.3L73.5396 276.881C72.5656 277.416 72.8694 279.888 72.8757 281.071C72.953 295.672 72.7471 310.263 73.4445 324.852C73.53 326.64 72.4019 327.78 70.5775 327.875C66.8099 328.073 63.0068 327.944 59.2164 327.916L38.8848 327.857C35.2122 327.851 30.0609 327.71 26.4727 328.007L26.0579 328.043C25.9948 323.442 26.2829 318.467 26.2858 313.795C26.2991 292.767 26.803 271.72 26.5925 250.693C26.5565 247.099 24.302 246.253 23.2485 243.339C22.7277 241.898 22.9591 237.675 22.9961 235.938C23.1062 229.299 23.167 222.659 23.1786 216.019C23.1861 211.937 23.0169 205.207 23.6301 201.351C24.7227 200.393 31.6284 195.746 32.8478 195.294C37.2828 192.223 41.6249 188.805 46.0282 185.633Z"/><path fill="#10B981" d="M46.0282 185.633C46.6985 184.92 47.5934 184.308 48.3685 183.702C56.6613 177.227 65.7171 171.537 74.1169 165.258L132.6 122.164C141.797 115.37 150.664 108.222 160.001 101.567C169.641 94.6955 170.003 95.3438 169.479 107.255C169.348 116.513 169.282 125.771 169.282 135.029C169.285 139.037 169.553 146.42 169.173 150.018C169.114 149.079 168.585 145.148 168.451 144.377C167.833 140.821 168.935 117.463 168.098 116.088C167.965 127.353 168.209 138.786 167.968 150.013C162.883 151.219 149.466 162.602 144.183 166.049C143.081 166.769 139.842 169.348 138.757 169.809C136.934 169.873 134.057 172.951 131.435 173.642C130.573 172.556 131.809 171.831 130.989 170.554L130.549 170.583L130.058 171.326L129.737 171.256C128.276 167.861 125.789 163.51 123.738 160.393C123.194 159.568 121.766 159.06 121.138 158.115C119.609 155.812 117.605 153.119 116.355 150.699C115.002 148.078 114.391 142.907 115.202 140.101C115.422 139.341 116.396 136.976 116.749 135.949C118.074 134.924 119.323 134.142 120.035 132.628C99.9422 146.558 80.521 161.392 60.5677 175.483C57.8017 177.437 48.5018 184.637 46.0282 185.633Z"/><path fill="#022C22" d="M46.0282 185.633C46.6985 184.92 47.5934 184.308 48.3685 183.702C56.6613 177.227 65.7171 171.537 74.1169 165.258L132.6 122.164C141.797 115.37 150.664 108.222 160.001 101.567C169.641 94.6955 170.003 95.3438 169.479 107.255C169.348 116.513 169.282 125.771 169.282 135.029C169.285 139.037 169.553 146.42 169.173 150.018C169.114 149.079 168.585 145.148 168.451 144.377C167.833 140.821 168.935 117.463 168.098 116.088C168.015 111.491 167.995 106.894 168.038 102.298L167.902 98.1612C158.92 103.696 150.201 110.5 141.688 116.762C134.444 122.089 126.965 126.948 120.035 132.628C99.9422 146.558 80.521 161.392 60.5677 175.483C57.8017 177.437 48.5018 184.637 46.0282 185.633Z"/><path fill="#022C22" d="M23.6301 201.351C24.7227 200.393 31.6284 195.746 32.8478 195.294C31.6726 196.992 25.9393 199.563 24.54 202.413C24.7692 204.899 24.6702 208.082 24.7035 210.628C24.8238 219.827 24.4322 229.117 24.7267 238.305C24.8409 241.87 28.1318 245.413 28.3785 249.148C28.7383 254.594 28.6118 260.063 28.6341 265.515L28.7614 294.325L28.7869 313.215C28.8079 315.807 29.0736 321.71 28.8154 324.041L56.2123 323.964C60.1942 323.943 68.134 323.681 71.6523 324.252C72.2288 313.329 72.1322 303.261 71.7849 292.323C71.5985 286.452 72.1851 280.684 71.6944 274.781C72.2079 275.321 73.2201 276.287 73.5396 276.881C72.5656 277.416 72.8694 279.888 72.8757 281.071C72.953 295.672 72.7471 310.263 73.4445 324.852C73.53 326.64 72.4019 327.78 70.5775 327.875C66.8099 328.073 63.0068 327.944 59.2164 327.916L38.8848 327.857C35.2122 327.851 30.0609 327.71 26.4727 328.007L26.0579 328.043C25.9948 323.442 26.2829 318.467 26.2858 313.795C26.2991 292.767 26.803 271.72 26.5925 250.693C26.5565 247.099 24.302 246.253 23.2485 243.339C22.7277 241.898 22.9591 237.675 22.9961 235.938C23.1062 229.299 23.167 222.659 23.1786 216.019C23.1861 211.937 23.0169 205.207 23.6301 201.351Z"/><path fill="#022C22" d="M23.6301 201.351C24.7227 200.393 31.6284 195.746 32.8478 195.294C31.6726 196.992 25.9393 199.563 24.54 202.413C24.093 204.635 24.2841 210.694 24.3151 213.256C24.3718 217.963 24.3932 222.671 24.3794 227.378C24.3737 230.407 24.8429 233.439 22.9961 235.938C23.1062 229.299 23.167 222.659 23.1786 216.019C23.1861 211.937 23.0169 205.207 23.6301 201.351Z"/><path fill="#022C22" d="M168.098 116.088C168.935 117.463 167.833 140.821 168.451 144.377C168.585 145.148 169.114 149.079 169.173 150.018C169.067 151.211 168.96 151.787 167.963 152.553C154.707 162.742 140.667 171.909 127.142 181.698C108.273 195.353 90.06 209.858 70.551 222.653C77.2299 227.994 85.6701 233.574 92.7688 238.699L130.078 266.124L129.803 266.746L92.7815 240.187C87.523 236.257 82.2266 232.378 76.893 228.551C74.629 226.904 69.7347 223.175 67.4716 222.186L112.638 189.207C118.409 185.067 124.136 180.867 129.819 176.607C132.59 174.549 136.184 172.029 138.757 169.809C139.842 169.348 143.081 166.769 144.183 166.049C149.466 162.602 162.883 151.219 167.968 150.013C168.209 138.786 167.965 127.353 168.098 116.088Z"/><path fill="#022C22" d="M130.078 266.124C133.39 268.496 137.924 271.591 140.866 274.345C141.256 289.522 140.906 304.811 141.072 320.001C141.101 322.626 141.077 325.274 141.029 327.899C133.642 325.231 126.126 317.393 119.366 313.163C118.674 312.73 114.721 309.758 114.302 309.231C113.331 308.622 112.379 307.835 111.446 307.158C100.805 299.443 90.5562 291.283 80.4308 282.911C78.4078 281.238 75.6604 279.23 73.9525 277.3C81.8109 281.931 88.09 287.498 95.3914 292.862C99.8705 296.152 104.719 299.229 109.149 302.616C110.261 303.466 113.273 305.504 114.153 306.393C121.316 310.666 130.352 317.833 137.298 322.731C138.541 320.572 137.824 296.766 138.333 292.341C138.728 288.905 137.267 280.22 138.333 276.611C138.585 276.636 139.038 276.532 139.315 276.486C139.981 275.814 139.784 275.93 140.048 274.858C137.993 272.504 132.563 268.746 129.803 266.746L130.078 266.124Z"/><path fill="#059669" d="M140.048 274.858C140.648 277.347 140.658 289.868 140.644 293.017C140.596 303.697 140.934 314.937 140.584 325.569C139.483 324.63 138.387 323.684 137.298 322.731C138.541 320.572 137.824 296.766 138.333 292.341C138.728 288.905 137.267 280.22 138.333 276.611C138.585 276.636 139.038 276.532 139.315 276.486C139.981 275.814 139.784 275.93 140.048 274.858Z"/><path fill="#022C22" d="M73.9525 277.3C81.8109 281.931 88.09 287.498 95.3914 292.862C99.8705 296.152 104.719 299.229 109.149 302.616C110.261 303.466 113.273 305.504 114.153 306.393L114.017 306.836C112.898 306.227 110.282 304.187 109.13 303.344C105.545 300.731 101.937 298.151 98.3055 295.604C97.0069 294.686 94.1698 292.564 92.8637 291.864L92.8134 292.185C93.2406 292.619 93.5919 293.013 94.1694 293.234C95.5378 293.759 96.5594 295.487 97.7857 296.331C100.195 297.99 113.536 307.252 114.176 308.868C114.224 308.987 114.26 309.11 114.302 309.231C113.331 308.622 112.379 307.835 111.446 307.158C100.805 299.443 90.5562 291.283 80.4308 282.911C78.4078 281.238 75.6604 279.23 73.9525 277.3Z"/><path fill="#34D399" d="M67.4716 222.186C69.7347 223.175 74.629 226.904 76.893 228.551C82.2266 232.378 87.523 236.257 92.7815 240.187L129.803 266.746C132.563 268.746 137.993 272.504 140.048 274.858C139.784 275.93 139.981 275.814 139.315 276.486C139.038 276.532 138.585 276.636 138.333 276.611C137.599 274.642 130.303 269.685 128.255 268.177C123.372 264.561 118.457 260.987 113.511 257.457L86.2452 237.545C80.0723 233.12 73.4633 228.554 67.5033 223.793C66.8657 223.283 66.829 223.135 66.8098 222.529L67.4716 222.186Z"/><path fill="#10B981" d="M389.48 214.164C391.134 210.164 402.234 185.38 404.188 183.709C405.231 183.741 405.146 183.911 406.186 184.54C408.82 186.01 413.298 189.349 415.914 191.187C421.672 195.189 427.388 199.252 433.061 203.374C434.912 204.72 440.325 208.326 441.487 209.466C441.663 211.915 438.136 218.562 437.027 221.005C433.356 229.113 429.497 237.135 425.453 245.064C421.988 252.003 418.822 259.367 415.412 266.406C412.868 271.653 408.87 279.367 406.884 284.708C406.811 283.871 406.593 282.863 406.437 282.025C403.816 287.803 401.112 293.544 398.327 299.245C398.905 299.54 399.351 299.702 399.773 300.192C394.289 310.771 389.432 321.852 384.048 332.492C382.312 335.924 379.73 342.639 377.928 345.69L377.373 345.815C376.934 346.702 376.605 347.232 376.066 348.065C376.084 347.349 376.172 346.547 376.235 345.825C375.76 346.717 374.073 350.465 373.615 351.029C372.542 353.831 370.673 357.125 369.806 359.529C370.124 360.569 369.831 360.753 370.54 361.664C364.142 374.369 359.307 386.652 349.186 396.862C348.248 397.808 345.481 400.759 344.441 401.243C340.556 405.512 331.008 411.259 325.815 413.692C307.4 422.32 287.946 421.998 269.116 415.065C247.421 407.078 234.829 391.046 225.161 370.886C223.758 368.252 219.357 359.597 219.604 356.955C221.497 355.812 227.674 355.998 230.11 356.028C242.947 356.185 255.946 355.749 268.763 356.207C270.844 357.722 272.599 359.775 274.238 361.746C276.449 364.216 278.477 365.838 281.248 367.639C281.583 367.856 283.632 369.117 283.772 369.289C287.876 370.852 289.911 371.217 294.238 371.916C311.7 371.858 318.891 362.535 326.157 348.052C328.744 342.898 331.258 337.657 333.729 332.428C339.093 321.231 344.358 309.986 349.521 298.694C361.118 273.694 372.896 248.78 384.856 223.952C386.073 220.952 388.034 217.143 389.48 214.164Z"/><defs><linearGradient id="gradient_9" gradientUnits="userSpaceOnUse" x1="258.27985" y1="406.15298" x2="289.40378" y2="369.07529"><stop offset="0" stop-color="#059669"/><stop offset="1" stop-color="#10B981"/></linearGradient></defs><path fill="url(#gradient_9)" d="M291.751 374.918C294.066 375.235 296.774 375.234 299.096 374.911C300.45 374.723 301.67 373.197 302.632 374.332C301.2 375.572 296.992 375.235 296.507 377.252C297.328 378.164 297.838 379.792 298.248 380.098C299.575 381.177 302.13 382.165 303.324 383.249C307.481 387.022 312.041 390.065 316.507 393.421C317.833 394.417 321.415 396.138 322.017 397.249C321.687 399.263 326.588 401.842 328.021 403.152C328.494 403.583 329.914 403.913 330.746 404.559L330.75 405.305C331.593 406.77 330.884 405.243 332.014 406.039L332.112 407.011C333.369 407.224 335.475 404.72 337.043 404.114C338.991 403.36 342.226 400.343 343.92 398.854C348.905 394.554 353.22 389.534 356.724 383.961C359.249 379.912 372.405 351.91 373.252 351.272C373.368 351.184 373.494 351.11 373.615 351.029C372.542 353.831 370.673 357.125 369.806 359.529C370.124 360.569 369.831 360.753 370.54 361.664C364.142 374.369 359.307 386.652 349.186 396.862C348.248 397.808 345.481 400.759 344.441 401.243C340.556 405.512 331.008 411.259 325.815 413.692C307.4 422.32 287.946 421.998 269.116 415.065C247.421 407.078 234.829 391.046 225.161 370.886C223.758 368.252 219.357 359.597 219.604 356.955C221.497 355.812 227.674 355.998 230.11 356.028C242.947 356.185 255.946 355.749 268.763 356.207C270.844 357.722 272.599 359.775 274.238 361.746C276.449 364.216 278.477 365.838 281.248 367.639C281.583 367.856 283.632 369.117 283.772 369.289C287.876 370.852 289.911 371.217 294.238 371.916C296.888 372.559 297.344 372.721 300.073 372.721C298.327 373.108 296.034 373.186 294.21 373.308C293.376 373.863 291.262 373.501 290.274 373.353L290.099 373.536L290.19 374.023C291.459 374.568 293.442 374.579 294.906 374.753L291.751 374.918Z"/><defs><linearGradient id="gradient_10" gradientUnits="userSpaceOnUse" x1="301.44443" y1="362.6265" x2="264.86624" y2="414.1929"><stop offset="0" stop-color="black"/><stop offset="1" stop-color="#022C22"/></linearGradient></defs><path fill="url(#gradient_10)" d="M225.665 366.433C228.867 371.924 232.157 378.779 235.695 383.962C243.506 395.405 255.354 406.06 268.189 411.465C271.755 412.966 275.527 414.014 279.242 414.99C297.667 419.744 317.226 416.933 333.566 407.182C336.656 405.375 339.151 403.708 341.921 401.445C342.977 400.582 346.523 397.261 347.341 396.762L348.524 396.342C347.727 398.138 344.227 399.769 344.441 401.243C340.556 405.512 331.008 411.259 325.815 413.692C307.4 422.32 287.946 421.998 269.116 415.065C247.421 407.078 234.829 391.046 225.161 370.886C225.191 368.337 226.176 370.19 225.665 366.433Z"/><path fill="#059669" d="M225.161 370.886C223.758 368.252 219.357 359.597 219.604 356.955C221.497 355.812 227.674 355.998 230.11 356.028C242.947 356.185 255.946 355.749 268.763 356.207C270.844 357.722 272.599 359.775 274.238 361.746C273.548 361.742 272.598 361.487 271.844 361.402C269.596 359.054 270.004 357.04 266.063 356.833C265.831 357.412 265.777 357.456 265.728 358.068L265.257 358.582L265.534 358.826C263.191 359.367 250.107 359.044 246.948 359.017C238.552 359.018 230.155 359.075 221.759 359.187C222.682 360.707 225.151 364.79 225.665 366.433C226.176 370.19 225.191 368.337 225.161 370.886Z"/><path fill="#022C22" d="M225.161 370.886C223.758 368.252 219.357 359.597 219.604 356.955C221.497 355.812 227.674 355.998 230.11 356.028C242.947 356.185 255.946 355.749 268.763 356.207C270.844 357.722 272.599 359.775 274.238 361.746C273.548 361.742 272.598 361.487 271.844 361.402C269.596 359.054 270.004 357.04 266.063 356.833C256.676 356.382 246.312 356.947 236.848 356.958C233.8 356.962 223.102 356.7 220.691 357.279C220.737 358.219 221.048 358.28 221.759 359.187C222.682 360.707 225.151 364.79 225.665 366.433C226.176 370.19 225.191 368.337 225.161 370.886Z"/><path fill="#34D399" d="M266.063 356.833C270.004 357.04 269.596 359.054 271.844 361.402C272.598 361.487 273.548 361.742 274.238 361.746C276.449 364.216 278.477 365.838 281.248 367.639C281.583 367.856 283.632 369.117 283.772 369.289C287.876 370.852 289.911 371.217 294.238 371.916C296.888 372.559 297.344 372.721 300.073 372.721C298.327 373.108 296.034 373.186 294.21 373.308C293.376 373.863 291.262 373.501 290.274 373.353L290.099 373.536L290.19 374.023C291.459 374.568 293.442 374.579 294.906 374.753L291.751 374.918C284.434 374.211 278.742 371.037 273.461 366.006C271.109 363.765 268.658 359.013 265.534 358.826L265.257 358.582L265.728 358.068C265.777 357.456 265.831 357.412 266.063 356.833Z"/><path fill="#022C22" d="M271.844 361.402C272.598 361.487 273.548 361.742 274.238 361.746C276.449 364.216 278.477 365.838 281.248 367.639C281.583 367.856 283.632 369.117 283.772 369.289C287.876 370.852 289.911 371.217 294.238 371.916C296.888 372.559 297.344 372.721 300.073 372.721C298.327 373.108 296.034 373.186 294.21 373.308C289.282 372.871 285.309 372.123 280.995 369.572C277.364 367.578 274.235 364.784 271.844 361.402Z"/><path fill="#022C22" d="M369.806 359.529C370.124 360.569 369.831 360.753 370.54 361.664C364.142 374.369 359.307 386.652 349.186 396.862C348.248 397.808 345.481 400.759 344.441 401.243C344.227 399.769 347.727 398.138 348.524 396.342L347.341 396.762C351.632 392.166 355.934 387.319 358.868 381.697C362.673 374.408 366.211 366.93 369.806 359.529Z"/><path fill="#022C22" d="M384.856 223.952L385.222 224.25C385.716 223.577 385.857 223.287 386.236 222.535C386.045 224.33 384.462 225.069 384.413 228.56C383.431 231.095 381.549 234.76 380.345 237.293L373.467 251.855L349.678 302.162C342.302 317.82 335.1 333.575 327.76 349.243C322.742 359.956 316.178 368.65 304.173 371.788C302.949 372.108 301.297 372.602 300.073 372.721C297.344 372.721 296.888 372.559 294.238 371.916C311.7 371.858 318.891 362.535 326.157 348.052C328.744 342.898 331.258 337.657 333.729 332.428C339.093 321.231 344.358 309.986 349.521 298.694C361.118 273.694 372.896 248.78 384.856 223.952Z"/><path fill="#022C22" d="M406.186 184.54C408.82 186.01 413.298 189.349 415.914 191.187C421.672 195.189 427.388 199.252 433.061 203.374C434.912 204.72 440.325 208.326 441.487 209.466C441.663 211.915 438.136 218.562 437.027 221.005C433.356 229.113 429.497 237.135 425.453 245.064C421.988 252.003 418.822 259.367 415.412 266.406C412.868 271.653 408.87 279.367 406.884 284.708C406.811 283.871 406.593 282.863 406.437 282.025C413.251 268.211 419.795 254.106 426.483 240.222C431.308 230.206 436.277 220.317 440.708 210.116C432.451 203.735 423.207 197.807 414.878 191.461C412.593 189.72 407.272 186.366 405.399 184.62L406.186 184.54Z"/><path fill="#022C22" d="M376.235 345.825C376.57 344.358 379.361 339.183 380.137 337.547C386.203 324.77 392.122 311.957 398.327 299.245C398.905 299.54 399.351 299.702 399.773 300.192C394.289 310.771 389.432 321.852 384.048 332.492C382.312 335.924 379.73 342.639 377.928 345.69L377.373 345.815C376.934 346.702 376.605 347.232 376.066 348.065C376.084 347.349 376.172 346.547 376.235 345.825Z"/><path fill="#022C22" d="M389.48 214.164C391.134 210.164 402.234 185.38 404.188 183.709C405.231 183.741 405.146 183.911 406.186 184.54L405.399 184.62L404.621 184.801L391.807 213.005L389.48 214.164Z"/><path fill="#022C22" d="M389.48 214.164L391.807 213.005C389.973 217.044 386.505 224.915 384.413 228.56C384.462 225.069 386.045 224.33 386.236 222.535C385.857 223.287 385.716 223.577 385.222 224.25L384.856 223.952C386.073 220.952 388.034 217.143 389.48 214.164Z"/><defs><linearGradient id="gradient_11" gradientUnits="userSpaceOnUse" x1="403.43842" y1="291.50107" x2="402.39041" y2="290.96133"><stop offset="0" stop-color="#022C22" stop-opacity="0.98823529"/><stop offset="1" stop-color="#022C22"/></linearGradient></defs><path fill="url(#gradient_11)" d="M398.327 299.245C401.112 293.544 403.816 287.803 406.437 282.025C406.593 282.863 406.811 283.871 406.884 284.708C404.836 289.287 402.107 295.865 399.773 300.192C399.351 299.702 398.905 299.54 398.327 299.245Z"/><path fill="#022C22" d="M376.235 345.825C376.172 346.547 376.084 347.349 376.066 348.065C376.605 347.232 376.934 346.702 377.373 345.815L377.928 345.69C377.302 348.525 372.055 358.665 370.54 361.664C369.831 360.753 370.124 360.569 369.806 359.529C370.673 357.125 372.542 353.831 373.615 351.029C374.073 350.465 375.76 346.717 376.235 345.825Z"/></svg>